<svg width="477" height="1133" viewBox="0 0 477 1133" fill="none" xmlns="http://www.w3.org/2000/svg">
<g clip-path="url(#clip0)">
<path d="M64.4612 -251.696C210.111 -289.856 349.806 -269.692 401.446 -254.84L408.582 402.622L70.5969 405.776L64.4612 -251.696Z" fill="#FFC176" fill-opacity="0.36" stroke="black" stroke-width="2"/>
<path d="M313.161 1108.04C292.313 1124.4 236.326 1147.56 179.167 1109.29" stroke="black" stroke-width="3"/>
<path d="M312.75 1064.04C291.902 1080.41 235.916 1103.56 178.756 1065.3" stroke="black" stroke-width="3"/>
<path fill-rule="evenodd" clip-rule="evenodd" d="M246.267 1128.44C254.103 1127.49 265.714 1125.44 277.509 1122.12C290.232 1118.53 302.99 1113.49 311.487 1106.83L307.365 665.078L307.364 665.07L307.364 665.063C307.368 656.353 308.751 642.028 312.883 627.22C317.009 612.431 323.923 596.992 335.099 586.225C348.689 573.134 363.629 557.158 376.142 542.207C388.695 527.208 398.681 513.388 402.5 504.574C410.255 486.678 421.304 442.757 422.481 408.926C423.424 381.781 417.265 -203.44 414.06 -493.346C394.009 -512.84 330.624 -551.192 234.52 -550.295L234.492 -553.295C332.068 -554.206 396.459 -514.992 416.608 -495.048L417.046 -494.615L417.053 -493.999C420.256 -204.391 426.427 381.775 425.479 409.03C424.29 443.224 413.162 487.515 405.253 505.766C401.241 515.026 390.986 529.146 378.443 544.133C365.86 559.167 350.847 575.222 337.181 588.386C326.552 598.624 319.831 613.48 315.773 628.027C311.72 642.551 310.368 656.599 310.364 665.057L314.494 1107.53L314.501 1108.25L313.939 1108.71C304.96 1115.99 291.433 1121.3 278.324 1125C267.165 1128.15 256.174 1130.17 248.273 1131.21L248.236 1131.64C247.619 1131.59 246.971 1131.53 246.295 1131.46C245.621 1131.54 244.975 1131.61 244.359 1131.68L244.314 1131.25C236.394 1130.35 225.367 1128.54 214.152 1125.6C200.976 1122.15 187.352 1117.09 178.239 1109.98L177.669 1109.53L177.662 1108.81L173.533 666.334C173.371 657.878 171.757 643.857 167.435 629.411C163.105 614.942 156.108 600.215 145.291 590.177C131.381 577.27 116.071 561.498 103.21 546.701C90.3892 531.951 79.8728 518.025 75.6884 508.842C67.4404 490.741 55.4874 446.666 53.6605 412.5C52.2043 385.267 47.4346 -200.911 45.2317 -490.529L45.227 -491.145L45.6568 -491.587C65.4299 -511.903 129.078 -552.312 226.655 -553.222L226.683 -550.222C130.578 -549.325 67.9201 -509.797 48.2364 -489.932C50.4419 -200.017 55.206 385.217 56.6562 412.34C58.4638 446.143 70.3311 489.85 78.4183 507.598C82.4015 516.339 92.6431 529.971 105.474 544.733C118.264 559.448 133.499 575.143 147.331 587.978C158.707 598.534 165.907 613.842 170.309 628.551C174.716 643.279 176.367 657.575 176.533 666.284L176.533 666.291L176.533 666.299L180.655 1108.05C189.276 1114.55 202.125 1119.35 214.912 1122.7C226.768 1125.81 238.415 1127.63 246.267 1128.44Z" fill="black"/>
<path d="M277.509 1122.12L277.238 1121.15L277.238 1121.15L277.509 1122.12ZM246.267 1128.44L246.165 1129.44L246.277 1129.45L246.388 1129.44L246.267 1128.44ZM311.487 1106.83L312.104 1107.61L312.492 1107.31L312.487 1106.82L311.487 1106.83ZM307.365 665.078L308.365 665.068L307.365 665.078ZM307.364 665.07L306.364 665.07L306.365 665.08L307.364 665.07ZM307.364 665.063L306.364 665.063L306.364 665.063L307.364 665.063ZM312.883 627.22L313.846 627.489L313.846 627.489L312.883 627.22ZM335.099 586.225L335.793 586.946L335.793 586.946L335.099 586.225ZM376.142 542.207L375.375 541.565L375.375 541.565L376.142 542.207ZM402.5 504.574L403.418 504.971L403.418 504.971L402.5 504.574ZM422.481 408.926L423.48 408.961L423.48 408.961L422.481 408.926ZM414.06 -493.346L415.06 -493.357L415.055 -493.773L414.757 -494.063L414.06 -493.346ZM234.52 -550.295L233.52 -550.286L233.529 -549.286L234.529 -549.296L234.52 -550.295ZM234.492 -553.295L234.482 -554.295L233.482 -554.286L233.492 -553.286L234.492 -553.295ZM416.608 -495.048L417.312 -495.759L417.312 -495.759L416.608 -495.048ZM417.046 -494.615L418.046 -494.626L418.042 -495.037L417.75 -495.326L417.046 -494.615ZM417.053 -493.999L418.053 -494.01L418.053 -494.01L417.053 -493.999ZM425.479 409.03L424.479 408.996L424.479 408.996L425.479 409.03ZM405.253 505.766L404.335 505.369L404.335 505.369L405.253 505.766ZM378.443 544.133L379.21 544.774L379.21 544.774L378.443 544.133ZM337.181 588.386L336.487 587.666L336.487 587.666L337.181 588.386ZM315.773 628.027L316.736 628.295L316.736 628.295L315.773 628.027ZM310.364 665.057L309.364 665.057L309.365 665.066L310.364 665.057ZM314.501 1108.25L315.13 1109.03L315.505 1108.73L315.5 1108.24L314.501 1108.25ZM313.939 1108.71L314.568 1109.49L314.568 1109.49L313.939 1108.71ZM278.324 1125L278.596 1125.97L278.324 1125ZM248.273 1131.21L248.142 1130.22L247.346 1130.33L247.277 1131.13L248.273 1131.21ZM248.236 1131.64L248.15 1132.64L249.146 1132.73L249.232 1131.73L248.236 1131.64ZM246.295 1131.46L246.396 1130.47L246.286 1130.45L246.177 1130.47L246.295 1131.46ZM244.359 1131.68L243.365 1131.78L243.469 1132.78L244.464 1132.67L244.359 1131.68ZM244.314 1131.25L245.308 1131.14L245.224 1130.35L244.426 1130.25L244.314 1131.25ZM214.152 1125.6L213.898 1126.57L214.152 1125.6ZM178.239 1109.98L178.855 1109.19L178.855 1109.19L178.239 1109.98ZM177.669 1109.53L176.669 1109.54L176.674 1110.02L177.054 1110.32L177.669 1109.53ZM173.533 666.334L174.533 666.325L174.533 666.315L173.533 666.334ZM167.435 629.411L166.477 629.698L166.477 629.698L167.435 629.411ZM145.291 590.177L145.971 589.444L145.971 589.444L145.291 590.177ZM103.21 546.701L102.455 547.357L102.455 547.357L103.21 546.701ZM75.6884 508.842L76.5984 508.427L76.5984 508.427L75.6884 508.842ZM53.6605 412.5L54.6591 412.447L54.6591 412.447L53.6605 412.5ZM45.2317 -490.529L44.2318 -490.521L44.2318 -490.521L45.2317 -490.529ZM45.227 -491.145L44.5104 -491.843L44.224 -491.548L44.2271 -491.138L45.227 -491.145ZM45.6568 -491.587L44.9401 -492.284L44.9401 -492.284L45.6568 -491.587ZM226.655 -553.222L227.655 -553.232L227.645 -554.232L226.645 -554.222L226.655 -553.222ZM226.683 -550.222L226.692 -549.222L227.692 -549.232L227.683 -550.232L226.683 -550.222ZM48.2364 -489.932L47.526 -490.636L47.2332 -490.34L47.2364 -489.924L48.2364 -489.932ZM56.6562 412.34L55.6577 412.393L55.6577 412.393L56.6562 412.34ZM78.4183 507.598L77.5083 508.013L77.5083 508.013L78.4183 507.598ZM105.474 544.733L106.229 544.077L106.229 544.077L105.474 544.733ZM147.331 587.978L146.651 588.711L146.651 588.711L147.331 587.978ZM170.309 628.551L171.267 628.264L171.267 628.264L170.309 628.551ZM176.533 666.284L177.532 666.266L177.532 666.265L176.533 666.284ZM176.533 666.291L177.533 666.282L177.533 666.274L176.533 666.291ZM176.533 666.299L177.533 666.289L176.533 666.299ZM180.655 1108.05L179.655 1108.06L179.66 1108.55L180.053 1108.85L180.655 1108.05ZM214.912 1122.7L215.166 1121.73L215.166 1121.73L214.912 1122.7ZM277.238 1121.15C265.499 1124.47 253.938 1126.5 246.146 1127.45L246.388 1129.44C254.267 1128.47 265.93 1126.42 277.781 1123.08L277.238 1121.15ZM310.87 1106.04C302.53 1112.58 289.925 1117.57 277.238 1121.15L277.781 1123.08C290.54 1119.48 303.45 1114.4 312.104 1107.61L310.87 1106.04ZM306.365 665.087L310.487 1106.84L312.487 1106.82L308.365 665.068L306.365 665.087ZM306.365 665.08L306.365 665.087L308.365 665.068L308.364 665.061L306.365 665.08ZM306.364 665.063L306.364 665.07L308.364 665.07L308.364 665.063L306.364 665.063ZM311.92 626.952C307.762 641.853 306.368 656.268 306.364 665.063L308.364 665.063C308.368 656.438 309.741 642.204 313.846 627.489L311.92 626.952ZM334.406 585.505C323.046 596.448 316.069 612.082 311.92 626.952L313.846 627.489C317.95 612.781 324.799 597.536 335.793 586.946L334.406 585.505ZM375.375 541.565C362.885 556.489 347.97 572.439 334.406 585.505L335.793 586.946C349.409 573.83 364.373 557.828 376.909 542.849L375.375 541.565ZM401.583 504.176C397.828 512.842 387.932 526.562 375.375 541.565L376.909 542.849C389.459 527.854 399.534 513.934 403.418 504.971L401.583 504.176ZM421.481 408.891C420.309 442.602 409.286 486.398 401.583 504.176L403.418 504.971C411.224 486.957 422.299 442.913 423.48 408.961L421.481 408.891ZM413.06 -493.335C416.266 -203.402 422.424 381.777 421.481 408.891L423.48 408.961C424.425 381.785 418.265 -203.479 415.06 -493.357L413.06 -493.335ZM234.529 -549.296C330.38 -550.19 393.508 -511.932 413.363 -492.629L414.757 -494.063C394.51 -513.748 330.868 -552.195 234.51 -551.295L234.529 -549.296ZM233.492 -553.286L233.52 -550.286L235.52 -550.305L235.492 -553.305L233.492 -553.286ZM417.312 -495.759C396.964 -515.9 332.312 -555.208 234.482 -554.295L234.501 -552.295C331.824 -553.204 395.955 -514.085 415.905 -494.338L417.312 -495.759ZM417.75 -495.326L417.312 -495.759L415.905 -494.338L416.343 -493.904L417.75 -495.326ZM418.053 -494.01L418.046 -494.626L416.046 -494.604L416.053 -493.988L418.053 -494.01ZM426.478 409.065C427.427 381.779 421.255 -204.429 418.053 -494.01L416.053 -493.988C419.256 -204.352 425.426 381.77 424.479 408.996L426.478 409.065ZM406.17 506.164C414.13 487.794 425.285 443.38 426.478 409.065L424.479 408.996C423.295 443.069 412.193 487.236 404.335 505.369L406.17 506.164ZM379.21 544.774C391.749 529.791 402.094 515.572 406.17 506.164L404.335 505.369C400.387 514.48 390.222 528.5 377.676 543.491L379.21 544.774ZM337.874 589.106C351.566 575.917 366.603 559.836 379.21 544.774L377.676 543.491C365.116 558.497 350.128 574.526 336.487 587.666L337.874 589.106ZM316.736 628.295C320.772 613.829 327.429 599.168 337.874 589.106L336.487 587.666C325.676 598.08 318.891 613.13 314.809 627.758L316.736 628.295ZM311.364 665.058C311.368 656.684 312.71 642.726 316.736 628.295L314.809 627.758C310.731 642.375 309.368 656.514 309.364 665.057L311.364 665.058ZM315.494 1107.52L311.364 665.048L309.365 665.066L313.494 1107.54L315.494 1107.52ZM315.5 1108.24L315.494 1107.52L313.494 1107.54L313.501 1108.26L315.5 1108.24ZM314.568 1109.49L315.13 1109.03L313.871 1107.48L313.309 1107.93L314.568 1109.49ZM278.596 1125.97C291.739 1122.26 305.428 1116.9 314.568 1109.49L313.309 1107.93C304.493 1115.08 291.127 1120.35 278.053 1124.04L278.596 1125.97ZM248.404 1132.2C256.345 1131.15 267.384 1129.13 278.596 1125.97L278.053 1124.04C266.947 1127.17 256.003 1129.18 248.142 1130.22L248.404 1132.2ZM247.277 1131.13L247.239 1131.56L249.232 1131.73L249.269 1131.3L247.277 1131.13ZM248.322 1130.65C247.71 1130.59 247.067 1130.53 246.396 1130.47L246.195 1132.46C246.875 1132.52 247.528 1132.59 248.15 1132.64L248.322 1130.65ZM244.464 1132.67C245.084 1132.61 245.735 1132.54 246.414 1132.45L246.177 1130.47C245.507 1130.55 244.865 1130.62 244.254 1130.68L244.464 1132.67ZM243.319 1131.35L243.365 1131.78L245.354 1131.57L245.308 1131.14L243.319 1131.35ZM244.426 1130.25C236.547 1129.36 225.568 1127.56 214.405 1124.64L213.898 1126.57C225.167 1129.52 236.242 1131.34 244.201 1132.24L244.426 1130.25ZM214.405 1124.64C201.264 1121.19 187.802 1116.17 178.855 1109.19L177.624 1110.76C186.902 1118 200.688 1123.11 213.898 1126.57L214.405 1124.64ZM178.855 1109.19L178.284 1108.74L177.054 1110.32L177.624 1110.76L178.855 1109.19ZM178.669 1109.52L178.662 1108.8L176.662 1108.82L176.669 1109.54L178.669 1109.52ZM178.662 1108.8L174.533 666.325L172.533 666.343L176.662 1108.82L178.662 1108.8ZM174.533 666.315C174.369 657.774 172.743 643.663 168.393 629.124L166.477 629.698C170.772 644.051 172.373 657.981 172.533 666.353L174.533 666.315ZM168.393 629.124C164.039 614.575 156.974 599.654 145.971 589.444L144.61 590.91C155.242 600.775 162.171 615.309 166.477 629.698L168.393 629.124ZM145.971 589.444C132.087 576.561 116.802 560.815 103.965 546.045L102.455 547.357C115.34 562.181 130.675 577.979 144.61 590.91L145.971 589.444ZM103.965 546.045C91.1406 531.291 80.7157 517.463 76.5984 508.427L74.7784 509.257C79.0299 518.587 89.6379 532.611 102.455 547.357L103.965 546.045ZM76.5984 508.427C68.4039 490.444 56.4795 446.492 54.6591 412.447L52.662 412.554C54.4953 446.84 66.4768 491.038 74.7784 509.257L76.5984 508.427ZM54.6591 412.447C53.2045 385.244 48.4348 -200.892 46.2317 -490.537L44.2318 -490.521C46.4344 -200.931 51.2041 385.29 52.662 412.554L54.6591 412.447ZM46.2317 -490.537L46.227 -491.153L44.2271 -491.138L44.2318 -490.521L46.2317 -490.537ZM45.9437 -490.448L46.3734 -490.889L44.9401 -492.284L44.5104 -491.843L45.9437 -490.448ZM46.3734 -490.889C65.9516 -511.005 129.341 -551.314 226.664 -552.222L226.645 -554.222C128.816 -553.309 64.9082 -512.801 44.9401 -492.284L46.3734 -490.889ZM225.655 -553.213L225.683 -550.213L227.683 -550.232L227.655 -553.232L225.655 -553.213ZM226.673 -551.222C130.316 -550.323 67.4024 -510.695 47.526 -490.636L48.9467 -489.228C68.4377 -508.898 130.841 -548.328 226.692 -549.222L226.673 -551.222ZM47.2364 -489.924C49.4417 -200.037 54.2058 385.24 55.6577 412.393L57.6548 412.287C56.2062 385.195 51.4421 -199.997 49.2363 -489.94L47.2364 -489.924ZM55.6577 412.393C57.4717 446.318 69.3675 490.147 77.5083 508.013L79.3283 507.183C71.2946 489.553 59.4559 445.969 57.6548 412.287L55.6577 412.393ZM77.5083 508.013C81.5586 516.901 91.8919 530.631 104.719 545.389L106.229 544.077C93.3944 529.311 83.2443 515.778 79.3283 507.183L77.5083 508.013ZM104.719 545.389C117.533 560.131 132.793 575.852 146.651 588.711L148.011 587.245C134.205 574.434 118.995 558.765 106.229 544.077L104.719 545.389ZM146.651 588.711C157.841 599.094 164.973 614.208 169.351 628.838L171.267 628.264C166.841 613.475 159.573 597.973 148.011 587.245L146.651 588.711ZM169.351 628.838C173.73 643.473 175.369 657.679 175.533 666.303L177.532 666.265C177.365 657.472 175.702 643.085 171.267 628.264L169.351 628.838ZM175.533 666.302L175.533 666.309L177.533 666.274L177.532 666.266L175.533 666.302ZM175.533 666.301L175.533 666.308L177.533 666.289L177.533 666.282L175.533 666.301ZM175.533 666.308L179.655 1108.06L181.655 1108.04L177.533 666.289L175.533 666.308ZM180.053 1108.85C188.832 1115.47 201.835 1120.31 214.659 1123.67L215.166 1121.73C202.414 1118.39 189.719 1113.63 181.258 1107.25L180.053 1108.85ZM214.659 1123.67C226.57 1126.79 238.269 1128.62 246.165 1129.44L246.37 1127.45C238.562 1126.64 226.965 1124.83 215.166 1121.73L214.659 1123.67Z" fill="black"/>
<path d="M180.667 1109.28C237.808 1145.55 292.138 1123.57 312.161 1108.05L311.769 1066.05C257.296 1101.36 201.409 1081.58 180.275 1067.28L180.667 1109.28Z" fill="#FFC176" stroke="black"/>
<path d="M187.687 629.193C196.354 647.113 188.293 1069.21 192.83 1073.16C197.367 1077.12 226.913 1081.85 226.913 1081.85C229.035 934.154 227.104 673.827 229.235 634.306C230.279 614.962 196.094 556.111 181.258 529.749C166.423 503.386 129.046 453.733 118.912 439.326C108.778 424.92 93.345 343.061 90.1105 300.089C86.8761 257.118 92.7583 -273.46 92.7583 -273.46C92.9229 -345.131 90.8427 -489.452 81.2057 -493.362C71.5688 -497.272 55.7533 -488.124 56.4121 -471.13C57.071 -454.135 63.6117 300.337 63.6117 300.337C65.2918 337.489 69.494 416.287 72.8618 434.256C77.0716 456.718 81.7161 472.175 111.658 519.398C135.612 557.176 179.019 611.273 187.687 629.193Z" fill="#FFC176" fill-opacity="0.36"/>
</g>
<defs>
<clipPath id="clip0">
<rect width="477" height="1133" fill="white"/>
</clipPath>
</defs>
</svg>
